. 
  
http://www.torrenting.com/        :     Greatest Movie Tracker on The Net!!!
 
http://www.Torrenting.com          :     Once & For all ;)


               www . Torrenting . Com 

(((((((((((((= Enjoy No RAR releases =))))))))))))))))))))


...................................NFO:....................................

.[img]http://img847.imageshack.us/img847/3623/wrecked.jpg[/img]


[color=blue][size=5][b]Wrecked.2011.R4.DVDRip.XVID.AC3.HQ.Hive-CM8[/b][/size][/color]


[b]Thx Hive


CM8 Doing It Right The First Time :D


Source:

Encode:
Video was nice, just interlaced a lot.
Removed the interlacing, sharpened, rgb, chroma, denoise.
Got very nice - enjoy!


Video: 720x304 @bitrate 1800 2pass
Audio: English AC3 5.1 @384 (1:1 from DVD)
Sample: yes included[/b]


[url]http://www.imdb.com/title/tt1316622/[/url]


General
Complete name                    : Wrecked.2011.R4.DVDRip.XVID.AC3.HQ.Hive-CM8.avi
Format                           : AVI
Format/Info                      : Audio Video Interleave
File size                        : 1.37 GiB
Duration                         : 1h 29mn
Overall bit rate                 : 2 191 Kbps
Writing application              : Nandub v1.0rc2
Writing library                  : Nandub build 1853/release

Video
ID                               : 0
Format                           : MPEG-4 Visual
Format profile                   : Advanced Simple@L5
Format settings, BVOP            : 2
Format settings, QPel            : Yes
Format settings, GMC             : No warppoints
Format settings, Matrix          : Default (H.263)
Muxing mode                      : Packed bitstream
Codec ID                         : XVID
Codec ID/Hint                    : XviD
Duration                         : 1h 29mn
Bit rate                         : 1 798 Kbps
Width                            : 720 pixels
Height                           : 304 pixels
Display aspect ratio             : 2.35:1
Frame rate                       : 23.976 fps
Color space                      : YUV
Chroma subsampling               : 4:2:0
Bit depth                        : 8 bits
Scan type                        : Progressive
Compression mode                 : Lossy
Bits/(Pixel*Frame)               : 0.343
Stream size                      : 1.13 GiB (82%)
Writing library                  : XviD 1.2.1 (UTC 2008-12-04)

Audio
ID                               : 1
Format                           : AC-3
Format/Info                      : Audio Coding 3
Mode extension                   : CM (complete main)
Codec ID                         : 2000
Duration                         : 1h 29mn
Bit rate mode                    : Constant
Bit rate                         : 384 Kbps
Channel(s)                       : 6 channels
Channel positions                : Front: L C R, Side: L R, LFE
Sampling rate                    : 48.0 KHz
Bit depth                        : 16 bits
Compression mode                 : Lossy
Stream size                      : 246 MiB (18%)
Alignment                        : Split accross interleaves
Interleave, duration             : 42 ms (1.00 video frame)
Interleave, preload duration     : 500 ms


Plot:
A man trapped in a car wreck at the bottom of a ravine
must overcome incredible odds to survive.


Cast:
Adrien Brody       ...   Man
Caroline Dhavernas ...   Woman
Ryan Robbins       ...   George Weaver
Adrian Holmes      ...   Man in the Woods
Jacob Blair        ...   Park Ranger


[img]http://img193.imageshack.us/img193/7473/wrwrwrwrwrs.png[/img]
[img]http://img825.imageshack.us/img825/5222/22073631.png[/img]
[img]http://img809.imageshack.us/img809/4547/wrwr.png[/img]
[img]http://img840.imageshack.us/img840/8966/wrwrwr.png[/img]
[img]http://img850.imageshack.us/img850/7786/wrwrwrwr.png[/img]


Cover + Label:
[img]http://img696.imageshack.us/img696/4972/wrecked2011frontcover56.jpg[/img]

[img]http://img21.imageshack.us/img21/572/wreckedlabel.jpg[/img]



Greetz

ViSiON,SANTi,MAGNET,THC,T0XiC,LKRG,IMAGiNE,WBZ,FLAWL3SS,NOVA
D2U,Vik,Rapeseed,SAFC,goldadvance,MEMORY100,KaN1vE,Unevano,
Pinnz,Wayne,Mr Hive and all P2P groups 
Great Work Guys :D

FYS

CM8@hushmail.com